# xmcd
#
# Track frame offsets: 
#        150
#        17372
#        30397
#        43665
#        57970
#        69640
#        83797
#        103880
#        121362
#        144767
#        161245
#        178012
#        193615
#        218427
#        235927
#
# Disc length: 3368 seconds
#
# Revision: 0
# Processed by: cddbd v1.5.2PL0 Copyright (c) Steve Scherf et al.
# Submitted via: ExactAudioCopy v0.95b4
#
DISCID=c50d260f
DTITLE=Eric Clapton - 1995-04-28 - Addicted To Blues
DYEAR=1995
DGENRE=Blues
TTITLE0=Motherless Child
TTITLE1=Malted Milk
TTITLE2=From Four Till Late
TTITLE3=How Long Blues
TTITLE4=Kidman Blues
TTITLE5=I'm Gonna Cut Your Head
TTITLE6=44
TTITLE7=Blues All Day Long
TTITLE8=Standin' Round Crying
TTITLE9=Hoochie Coochie Man
TTITLE10=It Hurts Me Too
TTITLE11=Blues Before Sunrise
TTITLE12=Third Degree
TTITLE13=Reconsider Baby
TTITLE14=Sinner's Prayer
EXTD=
EXTT0=
EXTT1=
EXTT2=
EXTT3=
EXTT4=
EXTT5=
EXTT6=
EXTT7=
EXTT8=
EXTT9=
EXTT10=
EXTT11=
EXTT12=
EXTT13=
EXTT14=
PLAYORDER=
